<svg width="197" height="119" viewBox="0 0 197 119" fill="none" xmlns="http://www.w3.org/2000/svg">
<rect x="168.678" width="53.8764" height="53.8764" rx="5" transform="rotate(59.2877 168.678 0)" fill="#F5F5F5"/>
<rect x="162" y="75" width="35" height="34" rx="5" fill="#F5F5F5"/>
<path d="M12.6367 61.4883C10.4102 61.4883 8.46354 61.1628 6.79688 60.5117C5.14323 59.8477 3.84115 58.9036 2.89062 57.6797C1.9401 56.4427 1.40625 54.9583 1.28906 53.2266L1.26953 52.9141H6.83594L6.875 53.1289C7.00521 53.8581 7.33073 54.4896 7.85156 55.0234C8.38542 55.5443 9.07552 55.9544 9.92188 56.2539C10.7682 56.5404 11.7253 56.6836 12.793 56.6836C13.8867 56.6836 14.8242 56.5404 15.6055 56.2539C16.3997 55.9544 17.0117 55.5378 17.4414 55.0039C17.8841 54.457 18.1055 53.8255 18.1055 53.1094V53.0898C18.1055 52.1393 17.7279 51.3971 16.9727 50.8633C16.2305 50.3164 14.9805 49.8607 13.2227 49.4961L10.2539 48.9102C7.48047 48.3503 5.39062 47.4062 3.98438 46.0781C2.57812 44.75 1.875 43.0247 1.875 40.9023V40.8828C1.875 39.1641 2.33724 37.6667 3.26172 36.3906C4.1862 35.1016 5.45573 34.1055 7.07031 33.4023C8.6849 32.6862 10.5339 32.3281 12.6172 32.3281C14.7917 32.3281 16.6667 32.6667 18.2422 33.3438C19.8307 34.0208 21.0677 34.9779 21.9531 36.2148C22.8385 37.4518 23.3268 38.8906 23.418 40.5312L23.4375 40.9023H17.8711L17.8516 40.668C17.7474 39.9258 17.4674 39.2943 17.0117 38.7734C16.556 38.2396 15.9505 37.8294 15.1953 37.543C14.4531 37.2565 13.5938 37.1133 12.6172 37.1133C11.6146 37.1133 10.7487 37.263 10.0195 37.5625C9.29036 37.849 8.73047 38.2461 8.33984 38.7539C7.96224 39.2617 7.77344 39.8542 7.77344 40.5312V40.5508C7.77344 41.4362 8.15104 42.1523 8.90625 42.6992C9.66146 43.2461 10.8464 43.6823 12.4609 44.0078L15.4492 44.6133C17.4154 45.0039 19.0299 45.5443 20.293 46.2344C21.556 46.9245 22.487 47.7969 23.0859 48.8516C23.6979 49.8932 24.0039 51.1497 24.0039 52.6211V52.6406C24.0039 54.4505 23.5482 56.0195 22.6367 57.3477C21.7383 58.6628 20.4362 59.6849 18.7305 60.4141C17.0378 61.1302 15.0065 61.4883 12.6367 61.4883ZM27.1289 61V40.0625H32.832V43.5781H32.9492C33.3789 42.3802 34.1081 41.4232 35.1367 40.707C36.1784 39.9909 37.4023 39.6328 38.8086 39.6328C39.7852 39.6328 40.6641 39.8021 41.4453 40.1406C42.2266 40.4792 42.8841 40.9674 43.418 41.6055C43.9648 42.2435 44.349 43.0247 44.5703 43.9492H44.6875C45 43.0638 45.4688 42.3021 46.0938 41.6641C46.7318 41.013 47.4805 40.5117 48.3398 40.1602C49.2122 39.8086 50.1628 39.6328 51.1914 39.6328C52.5586 39.6328 53.7565 39.9258 54.7852 40.5117C55.8138 41.0977 56.6146 41.918 57.1875 42.9727C57.7604 44.0273 58.0469 45.2643 58.0469 46.6836V61H52.3438V48.1094C52.3438 47.3021 52.207 46.6185 51.9336 46.0586C51.6732 45.4987 51.2891 45.0755 50.7812 44.7891C50.2865 44.5026 49.668 44.3594 48.9258 44.3594C48.2096 44.3594 47.5781 44.5221 47.0312 44.8477C46.4974 45.1732 46.0807 45.6289 45.7812 46.2148C45.4818 46.8008 45.332 47.4844 45.332 48.2656V61H39.8438V47.9336C39.8438 47.1784 39.707 46.5339 39.4336 46C39.1602 45.4661 38.7695 45.0625 38.2617 44.7891C37.7669 44.5026 37.168 44.3594 36.4648 44.3594C35.7487 44.3594 35.1172 44.5286 34.5703 44.8672C34.0234 45.2057 33.5938 45.6745 33.2812 46.2734C32.9818 46.8724 32.832 47.569 32.832 48.3633V61H27.1289ZM67.8906 61.332C66.4974 61.332 65.2734 61.0651 64.2188 60.5312C63.1641 59.9844 62.3372 59.2357 61.7383 58.2852C61.1523 57.3216 60.8594 56.2279 60.8594 55.0039V54.9648C60.8594 53.6888 61.1784 52.6016 61.8164 51.7031C62.4544 50.7917 63.3789 50.0755 64.5898 49.5547C65.8008 49.0339 67.2721 48.7148 69.0039 48.5977L77.168 48.0898V51.6445L69.8633 52.1133C68.7695 52.1784 67.9362 52.4388 67.3633 52.8945C66.7904 53.3372 66.5039 53.9297 66.5039 54.6719V54.7109C66.5039 55.4792 66.7969 56.0846 67.3828 56.5273C67.9688 56.957 68.7565 57.1719 69.7461 57.1719C70.5924 57.1719 71.3477 57.0091 72.0117 56.6836C72.6888 56.3451 73.2161 55.8893 73.5938 55.3164C73.9844 54.7305 74.1797 54.0729 74.1797 53.3438V46.9961C74.1797 46.0716 73.8867 45.3424 73.3008 44.8086C72.7148 44.2617 71.862 43.9883 70.7422 43.9883C69.6745 43.9883 68.8281 44.2096 68.2031 44.6523C67.5781 45.0951 67.194 45.6549 67.0508 46.332L67.0117 46.5078H61.7969L61.8164 46.2734C61.9206 44.9844 62.3438 43.8385 63.0859 42.8359C63.8411 41.8333 64.8828 41.0521 66.2109 40.4922C67.5521 39.9193 69.1406 39.6328 70.9766 39.6328C72.7865 39.6328 74.3555 39.9258 75.6836 40.5117C77.0117 41.0846 78.0404 41.8984 78.7695 42.9531C79.5117 44.0078 79.8828 45.2383 79.8828 46.6445V61H74.1797V57.875H74.0625C73.6719 58.5911 73.1641 59.2096 72.5391 59.7305C71.9271 60.2383 71.2305 60.6354 70.4492 60.9219C69.668 61.1953 68.8151 61.332 67.8906 61.332ZM83.5742 61V40.0625H89.2773V43.7148H89.3945C89.707 42.4258 90.2734 41.4232 91.0938 40.707C91.9141 39.9909 92.9362 39.6328 94.1602 39.6328C94.4727 39.6328 94.7721 39.6523 95.0586 39.6914C95.3451 39.7305 95.5924 39.7826 95.8008 39.8477V44.8672C95.5664 44.776 95.2669 44.7044 94.9023 44.6523C94.5378 44.5872 94.1471 44.5547 93.7305 44.5547C92.793 44.5547 91.9922 44.737 91.3281 45.1016C90.6641 45.4661 90.1562 46 89.8047 46.7031C89.4531 47.4062 89.2773 48.2656 89.2773 49.2812V61H83.5742ZM107.246 61.4297C104.928 61.4297 103.21 60.9414 102.09 59.9648C100.97 58.9883 100.41 57.3802 100.41 55.1406V44.3594H97.5V40.0625H100.41V34.9453H106.172V40.0625H110V44.3594H106.172V54.5156C106.172 55.4922 106.387 56.1758 106.816 56.5664C107.259 56.944 107.91 57.1328 108.77 57.1328C109.03 57.1328 109.258 57.1263 109.453 57.1133C109.648 57.0872 109.831 57.0612 110 57.0352V61.2148C109.688 61.2669 109.297 61.3125 108.828 61.3516C108.372 61.4036 107.845 61.4297 107.246 61.4297ZM5.29297 109V104.605H13.3203C15.013 104.605 16.3086 104.267 17.207 103.59C18.1055 102.9 18.5547 101.904 18.5547 100.602V100.562C18.5547 99.7031 18.3464 98.9805 17.9297 98.3945C17.513 97.7956 16.8945 97.3464 16.0742 97.0469C15.2669 96.7474 14.2643 96.5977 13.0664 96.5977H5.29297V92.5938H12.3633C14.0299 92.5938 15.293 92.2617 16.1523 91.5977C17.0247 90.9206 17.4609 89.9766 17.4609 88.7656V88.7266C17.4609 87.6068 17.0768 86.7409 16.3086 86.1289C15.5404 85.5039 14.4661 85.1914 13.0859 85.1914H5.29297V80.8164H14.6094C16.3932 80.8164 17.9297 81.1029 19.2188 81.6758C20.5078 82.2487 21.5039 83.069 22.207 84.1367C22.9102 85.1914 23.2617 86.4414 23.2617 87.8867V87.9258C23.2617 88.9544 23.0208 89.9115 22.5391 90.7969C22.0703 91.6693 21.4258 92.3984 20.6055 92.9844C19.7852 93.5573 18.8542 93.9154 17.8125 94.0586V94.1758C19.1276 94.2669 20.293 94.6185 21.3086 95.2305C22.3242 95.8294 23.1185 96.6237 23.6914 97.6133C24.2773 98.5898 24.5703 99.6966 24.5703 100.934V100.973C24.5703 102.613 24.1732 104.033 23.3789 105.23C22.5977 106.428 21.4779 107.359 20.0195 108.023C18.5742 108.674 16.8424 109 14.8242 109H5.29297ZM2.34375 109V80.8164H8.24219V109H2.34375ZM34.5703 109.43C33.0339 109.43 31.7253 109.117 30.6445 108.492C29.5768 107.854 28.7565 106.949 28.1836 105.777C27.6237 104.605 27.3438 103.206 27.3438 101.578V88.0625H33.0469V100.387C33.0469 101.754 33.3659 102.815 34.0039 103.57C34.6549 104.326 35.6185 104.703 36.8945 104.703C37.5326 104.703 38.1055 104.592 38.6133 104.371C39.1341 104.15 39.5768 103.837 39.9414 103.434C40.306 103.017 40.5859 102.529 40.7812 101.969C40.9766 101.396 41.0742 100.771 41.0742 100.094V88.0625H46.7773V109H41.0742V105.543H40.957C40.5924 106.337 40.1107 107.027 39.5117 107.613C38.9258 108.199 38.2161 108.648 37.3828 108.961C36.5625 109.273 35.625 109.43 34.5703 109.43ZM50.6055 109V88.0625H56.3086V109H50.6055ZM53.457 85.3672C52.5977 85.3672 51.875 85.0742 51.2891 84.4883C50.7031 83.9023 50.4102 83.2057 50.4102 82.3984C50.4102 81.5781 50.7031 80.8815 51.2891 80.3086C51.875 79.7227 52.5977 79.4297 53.457 79.4297C54.3164 79.4297 55.0391 79.7227 55.625 80.3086C56.2109 80.8815 56.5039 81.5781 56.5039 82.3984C56.5039 83.2057 56.2109 83.9023 55.625 84.4883C55.0391 85.0742 54.3164 85.3672 53.457 85.3672ZM60.2734 109V80.8164H65.9766V109H60.2734ZM77.5781 109.43C75.8203 109.43 74.3034 108.993 73.0273 108.121C71.7513 107.249 70.7682 105.999 70.0781 104.371C69.401 102.743 69.0625 100.797 69.0625 98.5312V98.5117C69.0625 96.2331 69.4076 94.2865 70.0977 92.6719C70.7878 91.0443 71.7643 89.8008 73.0273 88.9414C74.3034 88.069 75.8203 87.6328 77.5781 87.6328C78.5677 87.6328 79.4792 87.7956 80.3125 88.1211C81.1458 88.4466 81.875 88.9154 82.5 89.5273C83.138 90.1263 83.6458 90.849 84.0234 91.6953H84.1406V80.8164H89.8438V109H84.1406V105.426H84.0234C83.6589 106.259 83.1641 106.975 82.5391 107.574C81.9141 108.16 81.1849 108.616 80.3516 108.941C79.5182 109.267 78.5938 109.43 77.5781 109.43ZM79.4922 104.703C80.4167 104.703 81.2305 104.456 81.9336 103.961C82.6367 103.453 83.1836 102.737 83.5742 101.812C83.9648 100.888 84.1602 99.7943 84.1602 98.5312V98.5117C84.1602 97.2487 83.9583 96.1615 83.5547 95.25C83.1641 94.3255 82.6172 93.6159 81.9141 93.1211C81.224 92.6133 80.4167 92.3594 79.4922 92.3594C78.5417 92.3594 77.7214 92.6068 77.0312 93.1016C76.3411 93.5964 75.8073 94.306 75.4297 95.2305C75.0521 96.1419 74.8633 97.2357 74.8633 98.5117V98.5312C74.8633 99.7943 75.0456 100.888 75.4102 101.812C75.7878 102.737 76.3216 103.453 77.0117 103.961C77.7148 104.456 78.5417 104.703 79.4922 104.703ZM103.184 109.43C101.048 109.43 99.2122 108.993 97.6758 108.121C96.1393 107.236 94.9544 105.979 94.1211 104.352C93.3008 102.724 92.8906 100.797 92.8906 98.5703V98.5508C92.8906 96.3242 93.3008 94.3971 94.1211 92.7695C94.9544 91.1289 96.1198 89.8659 97.6172 88.9805C99.1276 88.082 100.905 87.6328 102.949 87.6328C104.993 87.6328 106.758 88.069 108.242 88.9414C109.74 89.8008 110.892 91.0182 111.699 92.5938C112.52 94.1693 112.93 96.0117 112.93 98.1211V99.8789H95.6836V96.2852H110.234L107.52 99.6445V97.457C107.52 96.2331 107.331 95.2109 106.953 94.3906C106.576 93.5573 106.048 92.9323 105.371 92.5156C104.707 92.099 103.932 91.8906 103.047 91.8906C102.161 91.8906 101.374 92.1055 100.684 92.5352C100.007 92.9648 99.4727 93.5964 99.082 94.4297C98.7044 95.25 98.5156 96.2591 98.5156 97.457V99.6641C98.5156 100.823 98.7044 101.812 99.082 102.633C99.4727 103.453 100.026 104.085 100.742 104.527C101.458 104.957 102.311 105.172 103.301 105.172C104.082 105.172 104.759 105.048 105.332 104.801C105.905 104.553 106.374 104.241 106.738 103.863C107.103 103.486 107.35 103.102 107.48 102.711L107.52 102.594H112.754L112.695 102.809C112.539 103.577 112.233 104.352 111.777 105.133C111.322 105.914 110.703 106.63 109.922 107.281C109.154 107.932 108.21 108.453 107.09 108.844C105.983 109.234 104.681 109.43 103.184 109.43ZM115.879 109V88.0625H121.582V91.7148H121.699C122.012 90.4258 122.578 89.4232 123.398 88.707C124.219 87.9909 125.241 87.6328 126.465 87.6328C126.777 87.6328 127.077 87.6523 127.363 87.6914C127.65 87.7305 127.897 87.7826 128.105 87.8477V92.8672C127.871 92.776 127.572 92.7044 127.207 92.6523C126.842 92.5872 126.452 92.5547 126.035 92.5547C125.098 92.5547 124.297 92.737 123.633 93.1016C122.969 93.4661 122.461 94 122.109 94.7031C121.758 95.4062 121.582 96.2656 121.582 97.2812V109H115.879ZM139.062 109.43C137.135 109.43 135.495 109.15 134.141 108.59C132.786 108.03 131.725 107.255 130.957 106.266C130.202 105.263 129.746 104.104 129.59 102.789L129.57 102.613H135.137L135.176 102.789C135.358 103.609 135.768 104.247 136.406 104.703C137.044 105.159 137.93 105.387 139.062 105.387C139.792 105.387 140.41 105.302 140.918 105.133C141.426 104.951 141.816 104.697 142.09 104.371C142.376 104.046 142.52 103.655 142.52 103.199V103.18C142.52 102.62 142.318 102.171 141.914 101.832C141.51 101.493 140.794 101.207 139.766 100.973L136.211 100.23C134.857 99.944 133.724 99.5339 132.812 99C131.914 98.4531 131.237 97.7826 130.781 96.9883C130.326 96.181 130.098 95.2565 130.098 94.2148V94.1953C130.098 92.8542 130.456 91.6953 131.172 90.7188C131.888 89.7422 132.904 88.987 134.219 88.4531C135.547 87.9062 137.096 87.6328 138.867 87.6328C140.716 87.6328 142.285 87.9323 143.574 88.5312C144.876 89.1172 145.872 89.9115 146.562 90.9141C147.266 91.9167 147.637 93.0299 147.676 94.2539V94.4492H142.422L142.402 94.293C142.311 93.5378 141.96 92.9128 141.348 92.418C140.749 91.9102 139.922 91.6562 138.867 91.6562C138.216 91.6562 137.65 91.7474 137.168 91.9297C136.686 92.112 136.315 92.3724 136.055 92.7109C135.794 93.0365 135.664 93.4271 135.664 93.8828V93.9023C135.664 94.2539 135.749 94.5729 135.918 94.8594C136.1 95.1328 136.4 95.3737 136.816 95.582C137.233 95.7904 137.793 95.9727 138.496 96.1289L142.051 96.8906C144.251 97.3464 145.827 98.0299 146.777 98.9414C147.741 99.8529 148.223 101.077 148.223 102.613V102.633C148.223 104 147.832 105.191 147.051 106.207C146.27 107.223 145.189 108.017 143.809 108.59C142.441 109.15 140.859 109.43 139.062 109.43Z" fill="#F5F5F5"/>
</svg>
